<svg width="48.472839" height="45.341309" viewBox="0 0 48.4728 45.3413" fill="none" xmlns="http://www.w3.org/2000/svg" xmlns:xlink="http://www.w3.org/1999/xlink">
	<desc>
			Created with Pixso.
	</desc>
	<defs/>
	<path id="Vector" d="M28.9584 32.2585C28.7575 32.2585 28.5566 32.1803 28.4002 32.0352C26.4579 30.1487 24.6496 27.7822 23.1761 25.1701C21.6915 22.558 20.5751 19.8008 19.9389 17.1664C19.8607 16.8203 20.017 16.4631 20.3184 16.2845L32.6979 9.24078C33.0104 9.06219 33.3901 9.11798 33.6468 9.36359C35.5891 11.2501 37.3863 13.6166 38.8709 16.2287C40.3557 18.8408 41.4719 21.598 42.1082 24.2324C42.1863 24.5784 42.03 24.9357 41.7286 25.1143L29.3491 32.158C29.2263 32.225 29.0923 32.2585 28.9584 32.2585ZM21.6468 17.3785C22.2607 19.6891 23.2653 22.0892 24.5715 24.3775C25.8775 26.6659 27.4291 28.7534 29.1035 30.4612L40.4225 24.0203C39.8087 21.7096 38.804 19.3096 37.4979 17.0212C36.1918 14.7328 34.6402 12.6454 32.9659 10.9375L21.6468 17.3785Z" fill="#208BFC" fill-opacity="1.000000" fill-rule="nonzero"/>
	<path id="Vector" d="M32.6867 41.4009C32.3853 41.4009 32.0839 41.3563 31.7825 41.2781C30.9007 41.0325 30.1751 40.4744 29.7286 39.6818L27.2951 35.4177C26.3686 33.7878 26.9379 31.7004 28.5677 30.7739L40.9472 23.7302C42.577 22.8037 44.6644 23.373 45.5909 25.0027L48.0244 29.267C48.4709 30.0595 48.5937 30.9749 48.3481 31.8567C48.1025 32.7386 47.5333 33.4642 46.7518 33.9106L34.3723 40.9544C33.8476 41.2558 33.2784 41.4009 32.6867 41.4009ZM42.6216 24.8688C42.3203 24.8688 42.0076 24.947 41.7286 25.1032L29.3491 32.1469C28.4783 32.6381 28.1769 33.7432 28.6682 34.6139L31.1016 38.8781C31.336 39.3023 31.7267 39.6037 32.1955 39.7265C32.6644 39.8604 33.1443 39.7935 33.5685 39.559L45.9481 32.5153C46.3723 32.2809 46.6736 31.8902 46.7964 31.4214C46.9193 30.9525 46.8635 30.4725 46.6291 30.0483L44.1955 25.7842C43.8607 25.2037 43.2468 24.8688 42.6216 24.8688Z" fill="#208BFC" fill-opacity="1.000000" fill-rule="nonzero"/>
	<path id="Vector" d="M19.4366 18.1264C19.1352 18.1264 18.8338 18.0818 18.5324 18.0036C17.6506 17.7581 16.925 17.1999 16.4785 16.4073L14.045 12.1431C13.1185 10.5134 13.6878 8.42596 15.3176 7.49945L27.6859 0.44458C29.3156 -0.481934 31.4031 0.0873413 32.3297 1.7171L34.7631 5.98132C35.6896 7.61108 35.1203 9.69849 33.4905 10.625L21.111 17.6688C20.5864 17.9702 20.017 18.1152 19.4255 18.1152L19.4366 18.1264ZM29.3715 1.5943C29.0701 1.5943 28.7575 1.67249 28.4785 1.82874L16.0989 8.87244C15.2282 9.36365 14.9268 10.4688 15.418 11.3394L17.8515 15.6036C18.0859 16.0278 18.4766 16.3292 18.9454 16.452C19.4142 16.5748 19.8942 16.519 20.3184 16.2845L32.6979 9.24084C33.5687 8.74969 33.8701 7.64453 33.379 6.77386L30.9454 2.50964C30.6105 1.9292 29.9966 1.5943 29.3715 1.5943Z" fill="#208BFC" fill-opacity="1.000000" fill-rule="nonzero"/>
	<path id="Vector" d="M3.58539 39.905C3.284 39.905 2.9826 39.8715 2.68121 39.7822C1.74353 39.5366 0.950989 38.9338 0.471008 38.0966C-0.0090332 37.2482 -0.131775 36.2659 0.147278 35.3394C0.415161 34.4017 1.04028 33.6427 1.89984 33.1738L19.2357 23.8864C19.5036 23.7413 19.8384 23.7636 20.084 23.9422C20.3297 24.1208 20.4525 24.4222 20.4078 24.7236C20.2961 25.3487 20.4078 26.0073 20.7203 26.5543C21.0329 27.1124 21.5352 27.5366 22.138 27.7599C22.4282 27.8715 22.6291 28.1282 22.6514 28.4408C22.6738 28.7422 22.5286 29.0436 22.2719 29.1999L5.43842 39.3692C4.86908 39.7152 4.24408 39.8827 3.59662 39.8827L3.58539 39.905ZM18.8115 25.9292L2.64777 34.5915C2.17889 34.8483 1.83289 35.2725 1.68774 35.7859C1.5426 36.2994 1.59845 36.8464 1.86633 37.3152C2.13428 37.7841 2.56958 38.119 3.08307 38.2529C3.59662 38.3868 4.14349 38.3087 4.60126 38.0297L20.2961 28.5413C19.9055 28.2175 19.5817 27.8157 19.3249 27.3692C19.0682 26.9227 18.9008 26.4315 18.8115 25.9404L18.8115 25.9292Z" fill="#208BFC" fill-opacity="1.000000" fill-rule="nonzero"/>
	<path id="Vector" d="M23.1091 29.5571C21.5909 29.5571 20.1174 28.7646 19.3249 27.3581C18.1415 25.2706 18.8671 22.6139 20.9547 21.4306C21.3342 21.2185 21.7471 21.0511 22.1713 20.9618C22.5508 20.8837 22.9193 21.0734 23.0755 21.4195C23.5109 22.4241 24.0132 23.4176 24.5602 24.3776C25.1072 25.3376 25.71 26.2864 26.3463 27.1683C26.5695 27.4808 26.5361 27.905 26.2792 28.1841C25.9778 28.5078 25.6318 28.7758 25.2523 28.9879C24.5714 29.3785 23.8347 29.5571 23.1091 29.5571ZM21.9035 22.7255C21.8476 22.7479 21.7918 22.7813 21.736 22.8148C20.4188 23.5627 19.9611 25.2483 20.709 26.5655C21.457 27.8827 23.1425 28.3404 24.4598 27.5925C24.5156 27.559 24.5714 27.5255 24.616 27.492C24.1025 26.7441 23.6114 25.9627 23.1649 25.159C22.7072 24.3665 22.283 23.5404 21.9035 22.7144L21.9035 22.7255Z" fill="#208BFC" fill-opacity="1.000000" fill-rule="nonzero"/>
	<path id="Vector" d="M47.6673 45.3413L0.805847 45.3413C0.359375 45.3413 0.00213623 44.9841 0.00213623 44.5376C0.00213623 44.0911 0.359375 43.7338 0.805847 43.7338L46.8636 43.7338L46.8636 41.8138C46.8636 41.5794 46.6738 41.3896 46.4394 41.3896L27.7752 41.3896C27.5407 41.3896 27.351 41.5794 27.351 41.8138C27.351 42.2604 26.9937 42.6176 26.5473 42.6176C26.1008 42.6176 25.7436 42.2604 25.7436 41.8138C25.7436 40.6976 26.6478 39.7822 27.7752 39.7822L46.4394 39.7822C47.5556 39.7822 48.471 40.6864 48.471 41.8138L48.471 44.5264C48.471 44.9729 48.1137 45.3301 47.6673 45.3301L47.6673 45.3413Z" fill="#208BFC" fill-opacity="1.000000" fill-rule="nonzero"/>
</svg>
