<svg width="45.749329" height="43.149414" viewBox="0 0 45.7493 43.1494" fill="none" xmlns="http://www.w3.org/2000/svg" xmlns:xlink="http://www.w3.org/1999/xlink">
	<desc>
			Created with Pixso.
	</desc>
	<defs/>
	<path id="Vector" d="M43.392 43.1494L2.35736 43.1494C1.93069 43.1494 1.58936 42.808 1.58936 42.3813L1.58936 38.872C1.58936 38.4453 1.93069 38.104 2.35736 38.104L43.392 38.104C43.8187 38.104 44.16 38.4453 44.16 38.872L44.16 42.3813C44.16 42.808 43.8187 43.1494 43.392 43.1494ZM3.11469 41.624L42.624 41.624L42.624 39.6507L3.11469 39.6507L3.11469 41.624Z" fill="#208BFC" fill-opacity="1.000000" fill-rule="nonzero"/>
	<path id="Vector" d="M44.9813 43.1494L0.768005 43.1494C0.341339 43.1494 0 42.808 0 42.3814C0 41.9547 0.341339 41.6134 0.768005 41.6134L44.9813 41.6134C45.408 41.6134 45.7493 41.9547 45.7493 42.3814C45.7493 42.808 45.408 43.1494 44.9813 43.1494Z" fill="#208BFC" fill-opacity="1.000000" fill-rule="nonzero"/>
	<path id="Vector" d="M39.7654 10.2427L5.97336 10.2427C5.62134 10.2427 5.31201 9.99731 5.22668 9.65601C5.14136 9.3147 5.30136 8.96265 5.62134 8.79199L22.5173 0.0880127C22.7413 -0.0293579 22.9973 -0.0293579 23.2213 0.0880127L40.1173 8.80267C40.4267 8.96265 40.5974 9.3147 40.512 9.66669C40.4267 10.008 40.1173 10.2534 39.7654 10.2534L39.7654 10.2427ZM9.12003 8.71735L36.608 8.71735L22.8694 1.62402L9.12003 8.71735Z" fill="#208BFC" fill-opacity="1.000000" fill-rule="nonzero"/>
	<path id="Vector" d="M44.1494 17.1761L1.58936 17.1761C1.16269 17.1761 0.82135 16.8347 0.82135 16.4081L0.82135 12.8987C0.82135 12.472 1.16269 12.1307 1.58936 12.1307L44.1494 12.1307C44.576 12.1307 44.9174 12.472 44.9174 12.8987L44.9174 16.4081C44.9174 16.8347 44.576 17.1761 44.1494 17.1761ZM2.35736 15.6401L43.392 15.6401L43.392 13.6667L2.35736 13.6667L2.35736 15.6401Z" fill="#208BFC" fill-opacity="1.000000" fill-rule="nonzero"/>
	<path id="Vector" d="M42.3787 13.6667L3.36002 13.6667C2.93335 13.6667 2.59201 13.3254 2.59201 12.8987L2.59201 11.8321C2.59201 10.1147 3.98935 8.71741 5.70667 8.71741L40.032 8.71741C41.7493 8.71741 43.1467 10.1147 43.1467 11.8321L43.1467 12.8987C43.1467 13.3254 42.8054 13.6667 42.3787 13.6667ZM4.12802 12.1414L41.6213 12.1414L41.6213 11.8321C41.6213 10.9574 40.9067 10.2534 40.0427 10.2534L5.70667 10.2534C4.832 10.2534 4.12802 10.9681 4.12802 11.8321L4.12802 12.1414Z" fill="#208BFC" fill-opacity="1.000000" fill-rule="nonzero"/>
	<path id="Vector" d="M12.2347 20.7386L4.62936 20.7386C4.30936 20.7386 4.02136 20.5359 3.9147 20.2266L2.64536 16.6639C2.56003 16.4293 2.59204 16.1733 2.74136 15.9706C2.88004 15.7679 3.11469 15.6506 3.3707 15.6506L13.5147 15.6506C13.76 15.6506 13.9947 15.7679 14.144 15.9706C14.2827 16.1733 14.3253 16.4293 14.24 16.6639L12.9707 20.2266C12.864 20.5359 12.576 20.7386 12.256 20.7386L12.2347 20.7386ZM5.17337 19.2133L11.7014 19.2133L12.4267 17.1866L4.44803 17.1866L5.17337 19.2133Z" fill="#208BFC" fill-opacity="1.000000" fill-rule="nonzero"/>
	<path id="Vector" d="M13.504 39.64L3.36002 39.64C3.11469 39.64 2.88004 39.5226 2.73068 39.32C2.59201 39.1173 2.54935 38.8613 2.6347 38.6266L3.90402 35.064C4.01068 34.7546 4.29871 34.552 4.61868 34.552L12.224 34.552C12.544 34.552 12.832 34.7546 12.9387 35.064L14.208 38.6266C14.2934 38.8613 14.2614 39.1173 14.112 39.32C13.9734 39.5226 13.7387 39.64 13.4827 39.64L13.504 39.64ZM4.44803 38.1147L12.4267 38.1147L11.7014 36.088L5.17337 36.088L4.44803 38.1147Z" fill="#208BFC" fill-opacity="1.000000" fill-rule="nonzero"/>
	<path id="Vector" d="M12.2347 36.088L4.62936 36.088C4.2027 36.088 3.86136 35.7466 3.86136 35.3199L3.86136 19.9706C3.86136 19.5439 4.2027 19.2026 4.62936 19.2026L12.2347 19.2026C12.6613 19.2026 13.0027 19.5439 13.0027 19.9706L13.0027 35.3199C13.0027 35.7466 12.6613 36.088 12.2347 36.088ZM5.39737 34.5626L11.4774 34.5626L11.4774 20.7386L5.39737 20.7386L5.39737 34.5626Z" fill="#208BFC" fill-opacity="1.000000" fill-rule="nonzero"/>
	<path id="Vector" d="M26.6774 20.7386L19.072 20.7386C18.752 20.7386 18.464 20.5359 18.3574 20.2266L17.088 16.6639C17.0027 16.4293 17.0347 16.1733 17.184 15.9706C17.3227 15.7679 17.5573 15.6506 17.8134 15.6506L27.9573 15.6506C28.2027 15.6506 28.4373 15.7679 28.5867 15.9706C28.7253 16.1733 28.768 16.4293 28.6827 16.6639L27.4134 20.2266C27.3067 20.5359 27.0187 20.7386 26.6987 20.7386L26.6774 20.7386ZM19.616 19.2133L26.144 19.2133L26.8694 17.1866L18.8907 17.1866L19.616 19.2133Z" fill="#208BFC" fill-opacity="1.000000" fill-rule="nonzero"/>
	<path id="Vector" d="M27.9467 39.64L17.8027 39.64C17.5573 39.64 17.3227 39.5226 17.1733 39.32C17.0347 39.1173 16.992 38.8613 17.0774 38.6266L18.3467 35.064C18.4533 34.7546 18.7414 34.552 19.0613 34.552L26.6667 34.552C26.9867 34.552 27.2747 34.7546 27.3813 35.064L28.6507 38.6266C28.736 38.8613 28.704 39.1173 28.5547 39.32C28.416 39.5226 28.1813 39.64 27.9254 39.64L27.9467 39.64ZM18.8907 38.1147L26.8694 38.1147L26.144 36.088L19.616 36.088L18.8907 38.1147Z" fill="#208BFC" fill-opacity="1.000000" fill-rule="nonzero"/>
	<path id="Vector" d="M26.6773 36.088L19.072 36.088C18.6454 36.088 18.304 35.7466 18.304 35.3199L18.304 19.9706C18.304 19.5439 18.6454 19.2026 19.072 19.2026L26.6773 19.2026C27.104 19.2026 27.4453 19.5439 27.4453 19.9706L27.4453 35.3199C27.4453 35.7466 27.104 36.088 26.6773 36.088ZM19.84 34.5626L25.9094 34.5626L25.9094 20.7386L19.84 20.7386L19.84 34.5626Z" fill="#208BFC" fill-opacity="1.000000" fill-rule="nonzero"/>
	<path id="Vector" d="M41.1094 20.7386L33.504 20.7386C33.184 20.7386 32.896 20.5359 32.7894 20.2266L31.52 16.6639C31.4347 16.4293 31.4667 16.1733 31.616 15.9706C31.7547 15.7679 31.9893 15.6506 32.2454 15.6506L42.3894 15.6506C42.6347 15.6506 42.8694 15.7679 43.0187 15.9706C43.1573 16.1733 43.2 16.4293 43.1147 16.6639L41.8454 20.2266C41.7387 20.5359 41.4507 20.7386 41.1307 20.7386L41.1094 20.7386ZM34.048 19.2133L40.576 19.2133L41.3014 17.1866L33.3227 17.1866L34.048 19.2133Z" fill="#208BFC" fill-opacity="1.000000" fill-rule="nonzero"/>
	<path id="Vector" d="M42.3787 39.64L32.2347 39.64C31.9893 39.64 31.7547 39.5226 31.6053 39.32C31.4667 39.1173 31.424 38.8613 31.5094 38.6266L32.7787 35.064C32.8853 34.7546 33.1734 34.552 33.4933 34.552L41.0987 34.552C41.4187 34.552 41.7067 34.7546 41.8134 35.064L43.0827 38.6266C43.168 38.8613 43.136 39.1173 42.9867 39.32C42.848 39.5226 42.6133 39.64 42.3574 39.64L42.3787 39.64ZM33.3227 38.1147L41.3014 38.1147L40.576 36.088L34.048 36.088L33.3227 38.1147Z" fill="#208BFC" fill-opacity="1.000000" fill-rule="nonzero"/>
	<path id="Vector" d="M41.1093 36.088L33.504 36.088C33.0774 36.088 32.736 35.7466 32.736 35.3199L32.736 19.9706C32.736 19.5439 33.0774 19.2026 33.504 19.2026L41.1093 19.2026C41.536 19.2026 41.8773 19.5439 41.8773 19.9706L41.8773 35.3199C41.8773 35.7466 41.536 36.088 41.1093 36.088ZM34.272 34.5626L40.352 34.5626L40.352 20.7386L34.272 20.7386L34.272 34.5626Z" fill="#208BFC" fill-opacity="1.000000" fill-rule="nonzero"/>
</svg>
