<svg width="48.000000" height="48.000000" viewBox="0 0 48 48" fill="none" xmlns="http://www.w3.org/2000/svg" xmlns:xlink="http://www.w3.org/1999/xlink">
	<desc>
			Created with Pixso.
	</desc>
	<defs/>
	<path d="M0 44.843L48 44.843L48 47.9999L0 47.9999L0 44.843Z" fill="#208BFC" fill-opacity="1.000000" fill-rule="evenodd"/>
	<path d="M23.9985 0L0 22.0957L0 41.6862L3.42921 41.6862L3.42921 23.4017L23.9985 4.46295L44.5708 23.4017L44.5708 41.6862L48 41.6862L48 22.0957L23.9985 0Z" fill="#208BFC" fill-opacity="1.000000" fill-rule="nonzero"/>
	<path d="M34.3674 29.6381C35.5133 28.5831 36.1719 27.1408 36.1719 25.6746C36.1719 24.2189 35.5482 22.8755 34.3674 21.7885C33.1199 20.6347 31.5068 20.0338 29.8502 20.1219C28.3561 20.194 26.9317 20.7842 25.8379 21.7885L23.9985 23.4845L22.1592 21.7885C21.0684 20.7842 19.641 20.1913 18.1469 20.1219C16.4961 20.0338 14.8743 20.6347 13.6297 21.7885C10.9606 24.2457 11.5351 27.7097 13.6297 29.6381L23.9957 39.1836L34.3674 29.6381ZM16.058 24.0187C16.5976 23.5192 17.204 23.2708 17.8568 23.2708C17.8974 23.2708 17.938 23.2708 17.9786 23.2735C18.614 23.3002 19.258 23.5753 19.7396 24.0187L24.0014 27.9448L28.2633 24.0187C28.7449 23.5753 29.3889 23.3002 30.0243 23.2735C30.6974 23.196 31.3704 23.4952 31.942 24.0187C32.4758 24.5101 32.7427 25.0629 32.7427 25.6746C32.7427 26.2969 32.4439 26.9432 31.942 27.4079L23.9985 34.7233L16.0551 27.4079C15.3182 26.7242 14.709 25.2606 16.058 24.0187Z" fill="#208BFC" fill-opacity="1.000000" fill-rule="nonzero"/>
</svg>
