<svg width="36.902832" height="48.068604" viewBox="0 0 36.9028 48.0686" fill="none" xmlns="http://www.w3.org/2000/svg" xmlns:xlink="http://www.w3.org/1999/xlink">
	<desc>
			Created with Pixso.
	</desc>
	<defs/>
	<path id="Vector" d="M36.08 41.4743C35.6229 41.4743 35.2571 41.1086 35.2571 40.6514L35.2571 39.3372C35.2571 38.88 35.6229 38.5143 36.08 38.5143C36.5372 38.5143 36.9028 38.88 36.9028 39.3372L36.9028 40.6514C36.9028 41.1086 36.5372 41.4743 36.08 41.4743Z" fill="#208BFC" fill-opacity="1.000000" fill-rule="nonzero"/>
	<path id="Vector" d="M36.08 34.2971C35.6229 34.2971 35.2571 33.9314 35.2571 33.4742L35.2571 30.5371C35.2571 30.08 35.6229 29.7142 36.08 29.7142C36.5372 29.7142 36.9028 30.08 36.9028 30.5371L36.9028 33.4742C36.9028 33.9314 36.5372 34.2971 36.08 34.2971Z" fill="#208BFC" fill-opacity="1.000000" fill-rule="nonzero"/>
	<path id="Vector" d="M36.08 25.4971C35.6229 25.4971 35.2571 25.1314 35.2571 24.6743L35.2571 23.36C35.2571 22.9028 35.6229 22.5371 36.08 22.5371C36.5372 22.5371 36.9028 22.9028 36.9028 23.36L36.9028 24.6743C36.9028 25.1314 36.5372 25.4971 36.08 25.4971Z" fill="#208BFC" fill-opacity="1.000000" fill-rule="nonzero"/>
	<path id="Vector" d="M31.7257 48.0685L5.16571 48.0685C2.32001 48.0685 0 45.7485 0 42.9028L0 22.6057C0 19.7599 2.32001 17.4399 5.16571 17.4399L31.7257 17.4399C34.5714 17.4399 36.8914 19.7599 36.8914 22.6057L36.8914 23.3599C36.8914 23.8171 36.5257 24.1828 36.0685 24.1828C35.6115 24.1828 35.2457 23.8171 35.2457 23.3599L35.2457 22.6057C35.2457 20.6628 33.6572 19.0742 31.7143 19.0742L5.16571 19.0742C3.22284 19.0742 1.63428 20.6628 1.63428 22.6057L1.63428 42.9028C1.63428 44.8456 3.22284 46.4342 5.16571 46.4342L31.7257 46.4342C33.6686 46.4342 35.2571 44.8456 35.2571 42.9028L35.2571 40.6514C35.2571 40.1942 35.6229 39.8285 36.08 39.8285C36.5372 39.8285 36.9028 40.1942 36.9028 40.6514L36.9028 42.9028C36.9028 45.7485 34.5829 48.0685 31.7371 48.0685L31.7257 48.0685Z" fill="#208BFC" fill-opacity="1.000000" fill-rule="nonzero"/>
	<path id="Vector" d="M28.9714 19.0743L7.91998 19.0743C7.46283 19.0743 7.09711 18.7086 7.09711 18.2514L7.09711 11.3372C7.09711 5.08569 12.1943 0 18.4457 0C24.6971 0 29.7943 5.08569 29.7943 11.3486L29.7943 18.2629C29.7943 18.72 29.4285 19.0857 28.9714 19.0857L28.9714 19.0743ZM8.7428 17.44L28.16 17.44L28.16 11.3486C28.16 6 23.8057 1.64569 18.4571 1.64569C13.1085 1.64569 8.7428 5.98859 8.7428 11.3486L8.7428 17.44Z" fill="#208BFC" fill-opacity="1.000000" fill-rule="nonzero"/>
	<path id="Vector" d="M24.0685 19.0743L12.8343 19.0743C12.3771 19.0743 12.0114 18.7086 12.0114 18.2515L12.0114 11.7143C12.0114 8.17145 14.9028 5.28003 18.4457 5.28003C21.9885 5.28003 24.88 8.17145 24.88 11.7143L24.88 18.2515C24.88 18.7086 24.5143 19.0743 24.0571 19.0743L24.0685 19.0743ZM13.6571 17.44L23.2457 17.44L23.2457 11.7258C23.2457 9.08575 21.0971 6.92572 18.4457 6.92572C15.7943 6.92572 13.6457 9.07434 13.6457 11.7258L13.6457 17.44L13.6571 17.44Z" fill="#208BFC" fill-opacity="1.000000" fill-rule="nonzero"/>
	<path id="Vector" d="M18.4457 41.2C16.5943 41.2 15.0857 39.6914 15.0857 37.84L15.0857 33.68C13.6115 32.6057 12.7429 30.9257 12.7429 29.0972C12.7429 25.9543 15.3029 23.3943 18.4457 23.3943C21.5886 23.3943 24.1486 25.9543 24.1486 29.0972C24.1486 30.9257 23.28 32.6057 21.8057 33.68L21.8057 37.84C21.8057 39.6914 20.2971 41.2 18.4457 41.2ZM18.4457 25.0286C16.2057 25.0286 14.3885 26.8457 14.3885 29.0857C14.3885 30.5029 15.12 31.7828 16.3314 32.5372C16.5714 32.6857 16.72 32.9485 16.72 33.2343L16.72 37.8286C16.72 38.7772 17.4971 39.5543 18.4457 39.5543C19.3943 39.5543 20.1714 38.7772 20.1714 37.8286L20.1714 33.2343C20.1714 32.9485 20.32 32.6857 20.56 32.5372C21.7828 31.7828 22.5143 30.5029 22.5143 29.0857C22.5143 26.8457 20.6857 25.0286 18.4457 25.0286Z" fill="#208BFC" fill-opacity="1.000000" fill-rule="nonzero"/>
</svg>
