<svg width="24.863281" height="25.000000" viewBox="0 0 24.8633 25" fill="none" xmlns="http://www.w3.org/2000/svg" xmlns:xlink="http://www.w3.org/1999/xlink">
	<desc>
			Created with Pixso.
	</desc>
	<defs/>
	<path d="M0 23.3557L24.8633 23.3557L24.8633 24.9999L0 24.9999L0 23.3557Z" fill="#007BFC" fill-opacity="1.000000" fill-rule="evenodd"/>
	<path d="M12.4309 0L0 11.5082L0 21.7115L1.77628 21.7115L1.77628 12.1884L12.4309 2.32446L23.087 12.1884L23.087 21.7115L24.8633 21.7115L24.8633 11.5082L12.4309 0Z" fill="#007BFC" fill-opacity="1.000000" fill-rule="nonzero"/>
	<path d="M17.8018 15.4363C18.3954 14.8869 18.7365 14.1357 18.7365 13.372C18.7365 12.6139 18.4134 11.9142 17.8018 11.348C17.1556 10.7471 16.32 10.4341 15.462 10.48C14.688 10.5176 13.9502 10.825 13.3836 11.348L12.4309 12.2314L11.4781 11.348C10.9131 10.825 10.1737 10.5162 9.3998 10.48C8.54472 10.4341 7.70467 10.7471 7.05998 11.348C5.67744 12.6278 5.97499 14.432 7.05998 15.4363L12.4294 20.408L17.8018 15.4363ZM8.31779 12.5096C8.59732 12.2495 8.91141 12.1201 9.24953 12.1201C9.27057 12.1201 9.2916 12.1201 9.31264 12.1215C9.64174 12.1354 9.97536 12.2786 10.2248 12.5096L12.4324 14.5544L14.64 12.5096C14.8894 12.2786 15.223 12.1354 15.5521 12.1215C15.9008 12.0811 16.2494 12.2369 16.5454 12.5096C16.822 12.7655 16.9602 13.0535 16.9602 13.372C16.9602 13.6961 16.8054 14.0328 16.5454 14.2748L12.4309 18.0849L8.31631 14.2748C7.93462 13.9187 7.61902 13.1564 8.31779 12.5096Z" fill="#007BFC" fill-opacity="1.000000" fill-rule="nonzero"/>
</svg>
