<svg width="300.000031" height="28.260986" viewBox="0 0 300 28.261" fill="none" xmlns="http://www.w3.org/2000/svg" xmlns:xlink="http://www.w3.org/1999/xlink">
	<desc>
			Created with Pixso.
	</desc>
	<defs/>
	<path id="Vector" d="M296.365 0L210.86 0C208.851 0 207.224 1.56714 207.224 3.4978L207.224 24.7664C207.224 26.697 208.851 28.261 210.86 28.261L296.365 28.261C298.373 28.261 300 26.6938 300 24.7664L300 3.4978C300.003 1.56714 298.373 0 296.365 0Z" fill="#FFFFFF" fill-opacity="1.000000" fill-rule="nonzero"/>
	<path id="Vector" d="M217.055 6.91919L231.474 6.91919L228.101 22.446L224.017 22.446L226.557 10.6885L220.335 10.6885L217.769 22.446L213.682 22.446L217.055 6.91919Z" fill="#184574" fill-opacity="1.000000" fill-rule="nonzero"/>
	<path id="Vector" d="M238.157 6.91919L250.488 6.91919L247.115 22.4492L243.004 22.4492L245.571 10.666L241.318 10.666C240.866 12.5618 240.345 14.9141 239.797 17.1736C238.775 21.3066 237.018 22.4492 233.599 22.4492L231.769 22.4492L232.599 18.5684L233.403 18.5684C234.781 18.5684 235.564 17.9971 235.946 16.5352C236.564 14.0649 237.443 10.2991 238.157 6.91919Z" fill="#184574" fill-opacity="1.000000" fill-rule="nonzero"/>
	<path id="Vector" d="M272.019 13.4714C272.019 11.531 270.88 10.2512 268.811 10.2512C265.793 10.2512 263.941 13.1045 263.941 15.9609C263.941 17.8567 265.199 19.1108 267.125 19.1108C270.239 19.114 272.019 16.3948 272.019 13.4714ZM259.738 16.5544L257.291 16.5544L256.009 22.446L251.922 22.446L255.295 6.91602L259.382 6.91602L258.101 12.7854L260.335 12.7854C261.451 9.4502 264.253 6.68628 269.15 6.68628C273.592 6.68628 276.228 9.15332 276.228 13.012C276.228 17.7161 273.473 22.6726 266.796 22.6726C262.54 22.6758 259.811 20.3459 259.738 16.5544Z" fill="#184574" fill-opacity="1.000000" fill-rule="nonzero"/>
	<path id="Vector" d="M289.552 16.6694L293.543 17.3779C292.307 20.6428 289.788 22.6758 285.442 22.6758C281.378 22.6758 278.622 20.2534 278.622 16.3948C278.622 11.646 281.617 6.68945 287.769 6.68945C291.926 6.68945 294.23 8.7002 294.419 11.9873L290.239 12.6479C290.073 11.3013 289.216 10.2512 287.414 10.2512C284.588 10.2512 282.805 13.0374 282.805 15.9609C282.805 17.9714 283.948 19.1108 285.75 19.1108C287.51 19.114 288.861 18.1311 289.552 16.6694Z" fill="#184574" fill-opacity="1.000000" fill-rule="nonzero"/>
	<path id="Vector" d="M78.8016 2.15601L71.7999 20.1125L64.7472 2.15601L55.9971 2.15601L55.9971 26.1008L61.2506 26.1008L61.2506 7.89136L68.5579 26.1008L74.3205 26.1008L81.632 7.79346L81.632 26.1008L87.2419 26.1008L87.2419 2.15601L78.8016 2.15601Z" fill="#FFFFFF" fill-opacity="1.000000" fill-rule="nonzero"/>
	<path id="Vector" d="M123.889 2.15601L143.188 2.15601L143.188 26.1008L137.218 26.1008L137.218 7.2019L129.342 7.2019C129.291 10.5674 129.189 15.0667 129.087 17.5918C128.883 23.8735 126.978 26.1008 121.368 26.1008L118.69 26.1008L118.69 21.0549L120.184 21.0549C122.705 21.0549 123.528 19.9658 123.685 16.5515C123.838 12.8926 123.889 5.61523 123.889 2.15601Z" fill="#FFFFFF" fill-opacity="1.000000" fill-rule="nonzero"/>
	<path id="Vector" d="M173.72 2.15601L196.418 2.15601L196.418 7.2019L188.029 7.2019L188.029 26.1008L182.109 26.1008L182.109 7.2019L173.72 7.2019L173.72 2.15601Z" fill="#FFFFFF" fill-opacity="1.000000" fill-rule="nonzero"/>
	<path id="Vector" d="M37.1943 21.9238C34.8603 21.8584 33.5067 20.5571 33.5067 18.9133C33.5067 17.5508 34.1432 16.8818 34.9877 16.4128C35.8703 15.915 37.0203 15.7437 38.8068 15.6826C40.5254 15.6255 41.9215 15.552 44.5822 15.552C44.5822 19.6394 41.9088 21.6953 38.5861 21.9114C38.0642 21.9441 37.7417 21.9399 37.1943 21.9238ZM40.5509 1.66235L38.4121 1.66235C33.2775 1.66235 29.3862 4.66455 28.4951 9.13135L33.948 9.97168C34.6949 7.84229 36.4092 6.39429 38.5776 6.29639C39.2778 6.26367 39.1081 6.27173 39.8083 6.29639C43.0333 6.40649 44.4888 7.89136 44.4888 11.5625C38.3824 11.5625 34.2068 11.2852 31.1346 13.231C28.6267 14.8218 27.5531 16.584 27.5531 19.3701C27.5531 23.4004 30.8163 26.5984 36.0867 26.5984L36.8124 26.5984C40.5339 26.5984 43.5383 25.2075 44.7604 23.5227L44.7604 26.1008L50.2557 26.105L50.2557 11.6687C50.26 6.10059 47.158 1.66235 40.5509 1.66235Z" fill="#FFFFFF" fill-opacity="1.000000" fill-rule="nonzero"/>
	<path id="Vector" d="M159.39 6.29248C160.014 6.25977 160.238 6.25977 160.862 6.29248C163.464 6.41895 166.205 8.04248 166.468 11.2732L153.653 11.2732C153.95 8.38916 156.36 6.45142 159.39 6.29248ZM172.337 15.748L172.337 13.5085C172.337 5.78247 167.287 1.78491 160.765 1.78491L159.487 1.78491C152.469 1.78491 147.992 6.38623 147.763 12.8762C147.729 13.8267 147.729 14.2224 147.763 15.5195C147.928 21.981 152.638 26.3254 158.931 26.4844C160.086 26.5171 159.937 26.5129 161.023 26.4844C166.502 26.3376 170.652 23.2986 171.874 19.3254L166.574 18.4363C165.28 20.9246 162.806 21.8792 160.833 21.9771C160.209 22.0095 160.12 22.0015 159.492 21.9771C156.394 21.8545 153.623 19.5212 153.623 16.1355L153.623 15.7561L172.337 15.7561L172.337 15.748Z" fill="#FFFFFF" fill-opacity="1.000000" fill-rule="nonzero"/>
	<path id="Vector" d="M111.192 15.9192C111.124 19.301 108.561 21.6016 105.115 21.7688C104.453 21.8015 104.496 21.8015 103.834 21.7688C100.354 21.6016 97.8294 19.301 97.7573 15.9192C97.7233 14.512 97.7233 13.7124 97.7573 12.3052C97.8294 8.95605 100.354 6.65942 103.834 6.49219C104.496 6.45972 104.453 6.45972 105.115 6.49219C108.561 6.65942 111.12 8.95605 111.192 12.3418C111.226 13.749 111.226 14.5161 111.192 15.9192ZM117.061 12.0154C116.929 6.21899 112.066 1.78076 105.642 1.78076L103.312 1.78076C96.8873 1.78076 92.0243 6.21899 91.8928 12.0439C91.8588 13.6594 91.8588 14.6016 91.8928 16.217C92.0243 22.0461 96.8873 26.4802 103.312 26.4802L105.642 26.4802C112.066 26.4802 116.929 22.0422 117.061 16.217C117.095 14.6057 117.095 13.6309 117.061 12.0154Z" fill="#FFFFFF" fill-opacity="1.000000" fill-rule="nonzero"/>
	<path id="Vector" d="M18.3022 17.6531C17.6105 19.8721 15.7518 21.3936 13.2567 21.728C12.5395 21.822 11.8224 21.7974 11.2453 21.72C8.13902 21.304 5.95361 19.0645 5.88996 15.9194C5.85602 14.512 5.85602 13.7124 5.88996 12.3052C5.95786 9.13574 8.24934 6.8186 11.4107 6.49634C11.5932 6.47607 12.2807 6.41895 12.9511 6.48828C15.6118 6.76147 17.6105 8.29541 18.3319 10.6287L24.1158 9.55566C22.8724 5.01147 18.5865 1.78491 13.1081 1.78491L11.4489 1.78491C5.02429 1.78491 0.161255 6.22314 0.0254593 12.0481C-0.00848389 13.6636 -0.00848389 14.606 0.0254593 16.2212C0.157013 22.0503 5.02005 26.4844 11.4489 26.4844L13.1081 26.4844C18.6968 26.4844 23.0209 23.1313 24.1667 18.4241L18.3022 17.6531Z" fill="#FFFFFF" fill-opacity="1.000000" fill-rule="nonzero"/>
</svg>
