<svg width="30.994995" height="25.000000" viewBox="0 0 30.995 25" fill="none" xmlns="http://www.w3.org/2000/svg" xmlns:xlink="http://www.w3.org/1999/xlink">
	<desc>
			Created with Pixso.
	</desc>
	<defs/>
	<path d="M22.8906 14.121L20.8624 15.759C20.3943 16.1399 19.6598 16.5931 18.8278 16.5931C18.1761 16.5931 17.4984 16.312 16.8126 15.7577L11.4107 11.3914C9.59546 9.92145 10.5413 8.81671 11.4091 8.1153L13.4373 6.47986L12.0868 5.38696L10.0587 7.02368C7.94922 8.73267 7.94922 10.7726 10.0587 12.4829L15.4621 16.8492C16.5184 17.7031 17.6495 18.1365 18.8278 18.1365C18.8278 18.1365 18.8278 18.1365 18.8294 18.1365C20.0043 18.1353 21.176 17.6899 22.2145 16.8492L22.8906 16.3028L28.2941 20.6705L27.618 21.2169C21.7123 25.9878 16.0813 21.7187 15.4621 21.2169L4.65839 12.4829C2.45959 10.7057 1.57068 8.77997 2.02081 6.76227C2.46771 4.74988 4.0766 3.27216 4.74774 2.72961L5.42377 2.18317L9.3858 5.38434L10.7363 4.29279L5.42377 0L3.39728 1.638C2.59937 2.28302 0.684998 4.04712 0.140564 6.48907C-0.249451 8.23877 -0.0154419 10.8882 3.30792 13.5745L14.1117 22.3085C15.7189 23.6076 18.506 25 21.7123 25C24.0086 25 26.5211 24.2841 28.9684 22.3085L30.995 20.6691L22.8906 14.121Z" fill="#007BFC" fill-opacity="1.000000" fill-rule="nonzero"/>
</svg>
