<svg width="143.717407" height="43.740906" viewBox="0 0 143.717 43.7409" fill="none" xmlns="http://www.w3.org/2000/svg" xmlns:xlink="http://www.w3.org/1999/xlink">
	<desc>
			Created with Pixso.
	</desc>
	<defs/>
	<path id="Vector" d="M138.086 0L5.63165 0C2.52008 0 0 2.42542 0 5.41388L0 38.332C0 41.3205 2.52008 43.7409 5.63165 43.7409L138.086 43.7409C141.197 43.7409 143.717 41.3156 143.717 38.332L143.717 5.41388C143.723 2.42542 141.197 0 138.086 0Z" fill="#208BFC" fill-opacity="1.000000" fill-rule="nonzero"/>
	<path id="Vector" d="M15.2277 10.7092L37.564 10.7092L32.3386 34.7408L26.0126 34.7408L29.9471 16.543L20.309 16.543L16.3334 34.7408L10.0023 34.7408L15.2277 10.7092Z" fill="#FFFFFF" fill-opacity="1.000000" fill-rule="nonzero"/>
	<path id="Vector" d="M47.9191 10.7092L67.0204 10.7092L61.795 34.7457L55.428 34.7457L59.4035 16.5084L52.8153 16.5084C52.1158 19.4426 51.3083 23.0831 50.4598 26.5804C48.8757 32.9774 46.155 34.7457 40.8577 34.7457L38.0239 34.7457L39.3096 28.7391L40.5543 28.7391C42.6886 28.7391 43.9024 27.8549 44.4938 25.5925C45.4504 21.7692 46.8134 15.9404 47.9191 10.7092Z" fill="#FFFFFF" fill-opacity="1.000000" fill-rule="nonzero"/>
	<path id="Vector" d="M100.371 20.8504C100.371 17.847 98.6074 15.8663 95.4033 15.8663C90.7282 15.8663 87.8584 20.2823 87.8584 24.7034C87.8584 27.6375 89.8076 29.5789 92.7906 29.5789C97.6147 29.5838 100.371 25.3752 100.371 20.8504ZM81.3473 25.6221L77.5568 25.6221L75.5717 34.7408L69.2405 34.7408L74.4659 10.7043L80.797 10.7043L78.8118 19.7884L82.273 19.7884C84.0011 14.6264 88.3419 10.3486 95.9279 10.3486C102.809 10.3486 106.893 14.167 106.893 20.1391C106.893 27.4202 102.624 35.0915 92.2814 35.0915C85.688 35.0964 81.4604 31.4905 81.3473 25.6221Z" fill="#FFFFFF" fill-opacity="1.000000" fill-rule="nonzero"/>
	<path id="Vector" d="M127.531 25.8L133.712 26.8967C131.799 31.95 127.896 35.0965 121.163 35.0965C114.868 35.0965 110.6 31.3473 110.6 25.3752C110.6 18.025 115.239 10.3536 124.769 10.3536C131.208 10.3536 134.777 13.4656 135.07 18.5535L128.595 19.576C128.338 17.4915 127.011 15.8663 124.218 15.8663C119.842 15.8663 117.08 20.1786 117.08 24.7034C117.08 27.8154 118.849 29.5789 121.642 29.5789C124.368 29.5839 126.461 28.0624 127.531 25.8Z" fill="#FFFFFF" fill-opacity="1.000000" fill-rule="nonzero"/>
</svg>
